<svg version="1.2" xmlns="http://www.w3.org/2000/svg" viewBox="0 0 560 506" width="560" height="506"><style>.a{fill:#00B4D8}</style><path class="a" d="m189.5 2.5c-1.4 1.4-2.7 4-3 5.8-0.3 1.7-0.4 113.3-0.3 247.9l0.3 244.7c4.4 4.5 5.4 4.6 21.3 4.9 9.2 0.2 18.2 0.1 19.9-0.2 1.8-0.3 4.4-1.7 5.8-3.1l2.5-2.5c0-230.7 0.2-244.1 1.5-244.8 1.1-0.5 2.6 0.3 4.8 2.4 1.8 1.7 13.3 11.1 25.7 20.9 12.4 9.8 29.5 23.4 38 30.2 12.7 10.2 16.1 12.3 18.8 12.3 2.9 0 3.8-0.9 9.5-8.6 3.4-4.8 8.6-11.9 11.5-15.8 3.5-4.8 5.2-8.1 5.2-10.1 0-1.6-0.5-3.7-1.2-4.6-0.7-0.8-5.6-4.9-10.8-8.9-5.2-4.1-12.4-9.7-16-12.5-3.6-2.9-21.1-16.8-39-31-17.9-14.2-36-28.5-40.2-31.9l-7.7-6.1c-0.1-77 0.3-93.7 0.9-94 0.6-0.3 1.9 0.1 2.9 0.8 1.1 0.6 11.1 8.6 22.3 17.7 11.1 9 27.7 22.5 36.8 29.8 9.1 7.4 25.5 20.6 36.5 29.3 15.8 12.6 20.6 16 23 16 1.6 0 4-0.8 5.2-1.8 1.2-1 6.7-8.1 12.3-15.8 7-9.8 10-14.8 10-16.7 0-1.7-1.1-3.9-2.8-5.5-1.5-1.6-13.7-11.6-27.1-22.3-13.4-10.7-33.4-26.9-44.5-35.9-11-9-25.5-20.7-32-26-6.6-5.3-16.7-13.5-22.5-18.2-5.8-4.8-21.8-17.7-35.6-28.8-16.6-13.4-25.8-20.2-27.3-20.1-1.3 0-3.4 1.1-4.7 2.5zm-86 40.9c-4.4 0.7-11.1 2.2-15 3.4-3.9 1.2-9.9 3.8-13.4 5.9-3.5 2.1-8.9 6.5-12 9.8-3.3 3.5-7.2 9.2-9.4 13.5-2 4.1-4.7 11.1-5.9 15.5-2.1 7.7-2.2 10.2-2.8 73.5-0.5 59.1-0.8 65.9-2.3 70-1 2.5-2.8 5.6-4 6.9-1.2 1.3-4.9 3.6-8.2 5.1-3.3 1.5-10.5 3.8-16 5-5.5 1.1-10.8 2.9-11.8 3.8-1.5 1.5-1.8 3.6-1.7 17.2 0 10.9 0.3 16 1.2 17.2 0.7 1 5.4 2.9 10.3 4.3 4.9 1.4 11.9 4 15.4 5.8 3.5 1.8 7.7 4.8 9.2 6.7 1.6 1.9 3.9 6.2 5.1 9.5 2.2 5.9 2.2 7.3 2.9 65 0.6 48.2 1 60.4 2.3 66.5 0.9 4.1 2.3 9.8 3.2 12.5 0.9 2.8 3.2 7.9 5 11.5 1.8 3.6 5.7 9.2 8.6 12.4 2.9 3.3 7.8 7.7 10.8 10 3 2.2 7.8 5 10.5 6.2 2.8 1.2 8.8 2.9 13.5 3.8 5.2 1 13.9 1.6 22.5 1.6 12.5 0.1 14.3-0.1 16.8-2l2.7-2c0-25.1-0.3-29-1.4-30.5-1.2-1.7-3-2.1-12.8-2.7-6.2-0.3-13.1-1.2-15.3-1.8-2.2-0.7-6.5-2.5-9.5-4.1-3-1.5-7-4.7-8.7-6.9-1.8-2.2-4.3-6.4-5.5-9.2-2.3-5.3-2.3-5.8-2.8-66.8-0.5-55.9-0.7-62-2.4-67-1-3-3.4-8.6-5.4-12.5-2.1-4-6.3-9.6-9.7-13.1-3.3-3.3-8.3-7.4-11.2-9-2.9-1.6-5.4-3.6-5.7-4.4-0.3-1 2.2-3.4 7.1-7 4.2-3 9.8-8 12.5-11 2.6-3 6.2-8 7.8-11 1.6-3 3.8-9.1 5-13.5 1.9-7.6 2-10.7 2-64 0-30.8 0.3-58.5 0.7-61.5 0.5-3.4 1.9-7.4 3.8-10.5 1.8-3 5-6.3 8-8.3 2.8-1.8 8.4-4.4 12.5-5.7 4.1-1.2 9.3-2.6 11.5-2.9 2.2-0.3 6.7-0.9 10-1.2 3.3-0.4 6.8-1.1 7.8-1.5 1.5-0.8 1.7-2.6 1.7-15.4v-14.5c-5.2-3.8-6.9-4.1-17.5-3.9-6.6 0-15.6 0.7-20 1.3zm310.4 0.5c-0.7 1.2-1 7.3-1 16 0.1 13.5 0.2 14.2 2.4 15.5 1.2 0.8 6.4 1.6 11.7 2 5.2 0.3 12.2 1.3 15.5 2.1 3.3 0.9 8.3 2.6 11 3.9 2.8 1.2 6.7 3.8 8.9 5.7 2.1 1.9 4.9 5.2 6.2 7.4 1.2 2.2 2.8 6.9 3.3 10.5 0.7 3.9 1.1 26.9 1.1 58.3 0 32.1 0.4 54.6 1.1 59.5 0.6 4.2 2.1 10.4 3.3 13.7 1.1 3.3 3.7 8.7 5.6 11.9 1.9 3.2 5.5 8 8 10.5 2.5 2.6 7.1 6.1 10.3 7.9 4.6 2.6 5.7 3.7 5.7 5.7 0 2-1.6 3.6-7.7 7.8-5.1 3.5-9.5 7.6-12.7 11.8-2.6 3.5-5.6 8-6.6 9.9-1 1.9-2.8 6.4-4.1 10-2.3 6.4-2.3 7.1-2.9 67-0.5 47.8-0.9 61.2-2 64-0.7 1.9-2.3 5.1-3.5 7-1.2 1.9-3.7 4.8-5.6 6.4-1.9 1.6-5.6 4-8.4 5.2-2.7 1.3-8.1 3-12 3.9-3.8 0.8-10.5 1.5-14.7 1.5-4.3 0-8.8 0.5-10 1.1-1.3 0.7-2.6 1.7-3 2.3-0.4 0.6-0.8 7.7-0.8 15.9 0 14.1 0.1 14.8 2.3 16.2 1.7 1.2 5.6 1.5 18.2 1.5 10 0 19.4-0.6 25-1.5 5.7-1 11.7-2.9 16.5-5.2 5.7-2.7 9.4-5.5 15.6-11.7 4.7-4.7 9.6-10.8 11.7-14.6 2-3.6 4.6-9.2 5.7-12.5 1.2-3.3 2.8-9.3 3.6-13.2 1.1-5.8 1.4-18.7 1.4-63 0-32 0.4-58.5 1-62 0.6-3.5 1.9-8 2.9-10 1-2.1 3.2-4.9 4.8-6.2 1.5-1.4 6-4 9.8-5.9 3.9-1.9 11.3-4.5 16.5-5.9 5.2-1.3 10-2.8 10.5-3.4 0.5-0.5 1.1-7.8 1.3-16.2 0.3-14.1 0.2-15.4-1.7-17.9-1.7-2.3-3.1-2.9-7.8-3.4-3.2-0.4-8.7-1.6-12.3-2.6-3.6-1.1-8.1-2.8-10-3.8-1.9-0.9-4.9-3.5-6.7-5.6-1.8-2.1-4.2-6.6-5.5-9.9-2.3-6-2.3-6.4-2.9-70-0.5-56.1-0.7-64.7-2.2-69.5-0.9-3-3-8.2-4.5-11.5-1.6-3.3-4.6-8.5-6.9-11.5-2.2-3-6.4-7.7-9.4-10.5-3-2.7-8.6-6.7-12.4-8.7-3.9-2-10.4-4.6-14.5-5.7-6.5-1.8-10.3-2.1-27.7-2.1-19 0-20.3 0.1-21.4 1.9z"/></svg>