<svg version="1.2" xmlns="http://www.w3.org/2000/svg" viewBox="0 0 900 900" width="900" height="900"><style>.a{fill:#ea822c}</style><g transform="translate(241,0)"><path fill-rule="evenodd" class="a" d="m187 6.1c3.6 3.5 18.9 18.1 34 32.5 15.1 14.3 29.7 28 32.3 30.5 4.4 4 5.4 5.8 11.7 21.9 3.7 9.6 8.7 23.3 11 30.5 2.2 7.2 6.4 21.6 9.1 32 2.8 10.4 5.2 19.6 5.5 20.3 0.2 0.7 3.3-1 8.2-4.8 4.2-3.4 14.2-11.2 22.2-17.5 8-6.3 14.8-11.1 15.2-10.7 0.5 0.4 2.1 10.1 3.6 21.7 2.8 20.7 2.9 21.1 6.7 27 2.1 3.3 8.3 13.4 13.8 22.5 5.4 9.1 13.2 23.3 17.2 31.5 4.1 8.3 9.4 21.1 11.9 28.5 2.4 7.4 5.4 18.4 6.7 24.5 1.8 8.7 2.3 14.3 2.3 27 0.1 14.2-0.2 16.7-2.2 22.5-1.2 3.6-5.2 12.4-8.8 19.5-3.5 7.1-9.5 17.2-13.2 22.4-3.7 5.2-12.5 15.6-19.6 23-7.1 7.5-19 19.4-26.5 26.5-7.5 7-21.5 19.9-31.1 28.5-9.6 8.6-23.3 20.6-43.1 37.6l16.3 0.6c9 0.3 45.1 0.7 80.3 0.8 35.2 0.1 64.6 0.5 65.3 0.9 1.1 0.5 0.5 2.4-2.3 8.2-2.1 4.1-12.9 24.6-24 45.5-11.2 20.9-23.7 44.3-35.3 66l-36.3 0.6c-20 0.3-48 0.7-87.9 0.9v34.5l22 22c12.1 12.1 21.9 22.5 21.8 23.2-0.2 0.6-5.4 6.4-11.5 12.7-6.2 6.4-11.6 11.6-12 11.6-0.5 0.1-5.2-4-20.3-18v144l-2.2 2.4c-1.3 1.3-11.2 10.7-22 21-10.9 10.2-20.1 18.4-20.5 18.2-0.5-0.2-0.7-13.6-0.3-59.1l-15.4-14c-8.5-7.7-15.5-14.5-15.5-15-0.1-0.5 6.9-8 30.9-32v-152.5l-122.2-0.5-7-13c-3.8-7.1-17.7-33.2-30.8-58-13.1-24.7-24.1-45.7-24.4-46.5-0.6-1.3 5.9-1.6 52.6-2.3 29.3-0.4 67-0.8 83.8-0.8 16.8 0 31.9-0.4 36.8-1.4l-8.2-6.6c-4.4-3.7-16-13.1-25.6-21-9.6-7.8-23.6-19.4-31-25.7-7.4-6.3-20-17.3-27.9-24.6-7.9-7.2-18.7-17.8-24-23.7-5.3-5.8-12.1-13.9-15.2-18-3.1-4-8.1-11.5-11-16.4-2.9-4.9-7.1-13.3-13.4-28v-18.5c0-14.2 0.5-20.5 1.9-27 1-4.7 3.4-13.4 5.3-19.5 2-6.1 5.6-15.7 8-21.5 2.5-5.8 6.1-13.4 8.1-17 2-3.6 7.6-12.8 12.5-20.5 4.9-7.7 12.3-18.7 16.5-24.5 4.1-5.8 15-19.9 24.2-31.5 9.1-11.6 20.7-26.2 25.6-32.5 4.9-6.3 11.7-15.3 15.1-20 3.4-4.7 8.8-12.8 12-18 3.3-5.2 8.7-14.5 12-20.5 3.3-6 7.7-15 9.6-20 2-5 4.7-13.5 6.1-19 1.3-5.5 2.9-13.4 3.6-17.5 0.6-4.1 1.4-8.6 1.8-9.9 0.6-2.2 0.9-2.1 7.2 4zm-3.9 109.4c-4.7 7.2-13.9 20.2-20.5 29-6.6 8.8-18.8 24.6-27.1 35-8.3 10.4-19.4 24.6-24.7 31.5-5.2 6.9-12.2 16.6-15.4 21.5-3.3 4.9-8.1 12.6-10.7 17-2.5 4.4-7 13.2-10 19.5-3 6.3-6.7 15.1-8.1 19.5-1.5 4.4-3.6 12.4-4.6 17.7-1.1 5.4-2 13.2-2 17.3 0 6.8 0.4 8.2 4.1 15.2 2.2 4.3 6.4 10.9 9.3 14.8 2.9 3.9 8.1 10.1 11.7 13.9 3.5 3.8 11.4 11.5 17.4 17 6.1 5.6 19.1 16.8 28.9 25.1 9.9 8.2 25.8 21.4 35.5 29.2 13.1 10.6 17.7 13.8 17.9 12.5 0.2-0.9 0.1-3.2-0.2-5-0.3-1.7-3.2-6.7-6.4-11-3.2-4.2-11-13.6-17.3-20.7-6.3-7.1-13.9-15.9-16.8-19.5-3-3.6-7.9-10.3-11-15-3-4.7-7.2-12.3-9.2-17-2-4.7-4.4-11.4-5.4-15-1.4-5.2-1.6-9.6-1.3-22.5 0.4-14.9 0.7-16.7 3.8-26 1.9-5.5 5.5-14.1 8-19 2.5-4.9 8.8-15.3 14-23 5.1-7.7 17.5-25 27.4-38.5 9.9-13.5 22.3-30 27.6-36.8 5.2-6.7 9.6-12.1 9.6-12 0.1 0.2 9.5 13.4 20.9 29.3 11.5 15.9 22.2 30.9 23.9 33.3 1.7 2.3 3.6 4.2 4.1 4.2 0.7 0 0.8-5.8 0.3-16.7-0.5-13-1.3-20-3.6-30.8-1.6-7.7-4.9-20.5-7.2-28.5-2.3-8-6.7-20.8-9.7-28.5-3-7.7-7.2-17.4-9.3-21.5-3-6.1-5.5-9.2-13.1-16.3-5.2-4.8-10.1-8.8-11-8.7-0.8 0-3.7 3.7-6.4 8.2-2.7 4.6-8.7 14.1-13.4 21.3zm110 131c-7.3 12.1-13.1 22.6-13.1 23.2 0 0.7 1.6 4.8 3.6 9 2 4.3 5.2 11.9 7.1 16.8 1.9 4.9 4.4 13.3 5.5 18.5 1.2 5.9 1.9 13.6 2 20.5 0 8.3-0.5 13-2.2 19-1.1 4.4-3.5 10.7-5.2 14-1.7 3.3-5.3 9.4-8.1 13.5-2.8 4.1-9.4 12.4-14.6 18.5-5.2 6.1-12.4 14.2-16 18-3.6 3.9-10.3 11-14.8 15.8l-8.3 8.7c0 15.5 0.3 20 0.8 20 0.4 0 4.8-3.2 9.7-7.2 5-4 14-11.4 20-16.6 6.1-5.2 15-13.1 20-17.6 4.9-4.4 12.8-11.7 17.5-16.1 4.7-4.4 13.6-13.2 19.9-19.5 6.2-6.3 13.9-14.6 17.1-18.5 3.1-3.9 8.1-10.8 10.9-15.5 2.9-4.7 6.3-10.5 7.4-13 1.6-3.4 2.2-7 2.5-14.5 0.3-6.7-0.1-12.8-1.2-18.5-1-4.7-3.4-13.7-5.5-20-2.1-6.3-6.1-16.2-8.8-22-2.7-5.8-7.5-15-10.8-20.5-3.2-5.5-8-13.3-10.7-17.3-2.6-3.9-5.2-7.2-5.8-7.2-0.5 0-2 1.5-3.4 3.2-1.3 1.8-8.3 13.2-15.5 25.3zm-123.5 49c-2.5 4.4-5.8 10.9-7.3 14.5-2.6 6.1-2.8 7.5-2.8 20.5 0 13.8 0.1 14.1 3.2 20.5 1.8 3.6 5.6 9.2 8.4 12.5 2.8 3.3 11.8 13.1 20 21.7 8.2 8.7 15.5 15.8 16.2 15.8 0.6 0 8.8-8 18.1-17.7 9.4-9.8 18.8-20.1 20.9-22.8 2.2-2.8 5.1-7.5 6.5-10.5 2.1-4.5 2.7-7.4 3-16.5 0.3-8.2 0-12.7-1.2-17.5-1-3.6-2.7-9-3.9-12-1.3-3-4.4-9.1-7-13.5-2.7-4.4-8.5-13-13-19.1-4.5-6.1-11.8-15.7-16.2-21.2-4.5-5.6-8.4-10.2-8.7-10.2-0.4 0-7.6 10.7-16.1 23.7-8.5 13.1-17.5 27.4-20.1 31.8zm-94.3 258.2c0.5 1 4 7.5 7.8 14.6l6.9 12.7h235c3.6-5.8 7.2-12.3 10.3-18.2 3.1-6 5.5-11.3 5.2-11.8-0.3-0.7-45.2-1-131.7-1-75.8 0-131.9 0.4-132.8 0.9-1 0.6-1.2 1.5-0.7 2.8z"/></g></svg>