<svg version="1.2" xmlns="http://www.w3.org/2000/svg" viewBox="0 0 677 675" width="677" height="675"><style>.a{fill:#06FFA5}</style><path class="a" d="m307 0.7c-2.5 0.2-10.1 1-17 1.9-6.9 0.9-17.9 2.7-24.5 4.1-6.6 1.4-15.8 3.6-20.5 4.9-4.7 1.4-13.7 4.3-20 6.6-6.3 2.2-15.6 5.9-20.5 8-4.9 2.2-14.6 6.9-21.5 10.4-6.9 3.5-17.2 9.3-23 13-5.8 3.6-15.4 10.3-21.5 14.9-6.1 4.5-16.6 13.2-23.5 19.2-6.9 6-16.9 15.7-22.2 21.4-5.3 5.7-13.1 14.7-17.4 19.9-4.2 5.2-10.7 13.8-14.4 19-3.8 5.2-9.6 14.2-13.1 20-3.4 5.8-9 16.1-12.5 23-3.4 6.9-8.3 17.4-10.7 23.5-2.5 6.1-6.6 17.8-9.1 26-2.5 8.3-5.7 20.4-7.1 27-1.4 6.6-3.7 20.6-5 31-1.3 10.4-2.2 19.3-1.9 19.8 0.2 0.4 10.4 0.7 22.6 0.7h22.3c2-15.1 3.9-26.2 5.6-34.5 1.7-8.5 5.5-22.7 8.9-32.8 3.3-9.7 8.4-22.8 11.2-28.9 2.9-6.2 8-16.2 11.4-22.3 3.3-6.1 9.4-15.7 13.4-21.5 4-5.8 10.2-14.3 13.9-18.9l6.6-8.3 222.6 222.7 220.4-222.3c7.2 8.8 13 16.5 17.5 22.8 4.5 6.3 11.5 17.4 15.6 24.5 4 7.1 9.7 18.2 12.5 24.5 2.8 6.3 7.5 18.7 10.4 27.5 2.9 8.8 6.3 20.5 7.6 26 1.2 5.5 3.4 17 4.8 25.5l2.6 15.5 45.5 0.5c0-4.3-0.7-10.9-1.5-17.5-0.9-6.6-2.9-18.7-4.6-27-1.6-8.2-4.5-20.4-6.4-27-1.8-6.6-4.9-16.3-6.8-21.5-1.9-5.2-5.6-14.4-8.2-20.5-2.6-6-7.2-15.7-10.3-21.5-3.1-5.8-7.8-14.1-10.5-18.5-2.7-4.4-8.1-12.5-12-18-3.9-5.5-10.6-14.3-14.8-19.5-4.2-5.2-12.6-14.7-18.6-21-6.1-6.3-15.6-15.5-21.3-20.5-5.6-4.9-14.5-12.3-19.9-16.3-5.3-4.1-15-10.8-21.6-15-6.6-4.2-17.4-10.4-24-13.8-6.6-3.5-18.8-9-27-12.4-8.3-3.3-19.7-7.6-25.5-9.5-5.8-1.8-15-4.5-20.5-5.9-5.5-1.4-16.3-3.6-24-5-7.7-1.4-18.4-3-23.8-3.6-5.3-0.5-11.1-1-12.7-1h-3v47c6.6 0.7 13.9 1.6 20.5 2.5 6.6 0.9 17.6 2.9 24.5 4.5 6.9 1.6 17.7 4.5 24 6.6 6.3 2 15.8 5.5 21 7.6 5.2 2.2 15.6 7.1 23 10.8 7.4 3.8 18.7 10.3 25 14.5 6.3 4.2 15.7 11 20.7 15.1 5.1 4.1 9.3 7.7 9.3 8.2 0 0.4-42.4 43.1-94.2 94.9l-94.3 94.3-190-188.7c3.1-3.5 9.2-8.4 15.5-13.1 6.3-4.8 16-11.5 21.5-15 5.5-3.4 16.7-9.6 25-13.7 8.2-4 20.9-9.5 28-12.1 7.1-2.5 18.9-6.1 26-7.9 7.1-1.8 18.6-4.2 25.5-5.3 6.9-1.2 15.5-2.3 19.2-2.6l6.8-0.6v-47c-4.3 0.3-7.5 0.5-10 0.7zm96.3 402.6l-64.3 64.2c-98.8-98.8-127.8-127.5-128.3-127.5-0.4 0-0.7 15-0.7 33.2v33.3l100 100c0 115-0.1 118.5-1.7 118.5-1 0-6.7-0.7-12.8-1.5-6.1-0.9-14.4-2.3-18.5-3.1-4.1-0.8-11.6-2.6-16.5-3.9-4.9-1.3-14.4-4.3-21-6.5-6.6-2.3-18.3-7.2-26-10.9-7.7-3.7-18.7-9.6-24.5-13.1-5.8-3.4-14.1-8.8-18.5-11.9-4.4-3.1-12.7-9.5-18.5-14.2-5.8-4.7-14.8-13.1-20-18.5-5.2-5.5-12.7-13.8-16.6-18.4-4-4.7-10.9-13.7-15.4-20-4.5-6.3-10.5-15.3-13.2-20-2.8-4.7-7.4-13.2-10.3-19-2.9-5.8-7.3-15.7-9.8-22-2.5-6.3-6.1-16.7-8.1-23-1.9-6.3-4.4-16.2-5.6-22-1.2-5.8-3-16.6-3.9-24l-1.7-13.5-46.9-0.6c1.2 12.9 2.2 21.3 3.1 27.1 0.8 5.8 2.6 15.7 4 22 1.4 6.3 4.1 17.1 6.1 24 1.9 6.9 5.8 18.6 8.5 26 2.8 7.4 8.8 20.9 13.4 30 4.6 9.1 12.8 23.2 18.3 31.5 5.4 8.2 13.9 20 18.7 26 4.9 6 15.9 18 24.4 26.6 8.5 8.6 19.3 18.7 24 22.6 4.7 3.9 13.7 10.8 20 15.3 6.3 4.5 17.5 11.8 24.8 16.1 7.2 4.4 18.3 10.4 24.5 13.5 6.1 3.1 16.6 7.9 23.2 10.6 6.6 2.7 18.1 6.8 25.5 9.2 7.4 2.4 18.9 5.6 25.5 7.1 6.6 1.5 18.1 3.6 25.5 4.7 7.4 1.1 20.3 2.3 28.5 2.8 8.3 0.4 22 0.6 30.5 0.3 8.5-0.2 19.5-0.8 24.5-1.3 5-0.6 14.6-2 21.5-3.1 6.9-1.2 19.3-3.8 27.5-6 8.3-2.1 19.5-5.3 25-7.2 5.5-1.9 15-5.5 21-7.9 6-2.5 15.5-6.8 21-9.5 5.5-2.8 14-7.4 19-10.3 5-2.9 14.2-8.8 20.5-13.1 6.3-4.3 16.5-11.8 22.5-16.6 6-4.8 17.7-15.3 25.9-23.3 8.2-8 18.3-18.5 22.4-23.5 4.2-5 10.7-13.3 14.6-18.5 3.9-5.2 10.3-14.7 14.2-21 3.9-6.3 10.5-18.3 14.6-26.5 4.1-8.3 9.6-20.4 12.2-27 2.5-6.6 6.4-18.1 8.7-25.5 2.2-7.4 5.3-20 6.9-28 1.6-8 3.6-20.1 4.5-27 0.8-6.9 1.5-14.2 1.5-16.3v-3.7h-47c-0.9 11.2-1.8 18.8-2.6 24-0.8 5.2-2.6 14.7-4 21-1.5 6.3-4.6 17.4-6.9 24.5-2.4 7.1-6.8 18.6-9.9 25.5-3.1 6.9-8.4 17.5-11.8 23.5-3.3 6-8.4 14.4-11.1 18.5-2.8 4.1-8.6 12.2-13.1 18-4.4 5.8-15.9 18.4-25.5 28.1-10.6 10.5-21.9 20.7-28.3 25.5-6 4.3-15.6 11-21.5 14.7-6 3.7-17.1 9.9-24.8 13.7-7.7 3.8-18.6 8.7-24.2 10.9-5.7 2.3-15.4 5.6-21.5 7.5-6.2 1.9-16.7 4.5-23.3 5.9-6.6 1.4-17.6 3.2-24.5 4.1-6.9 0.8-14.6 1.7-17.2 1.8l-4.8 0.3 0.1-107 112.8-114c0.1-51.5 0-66.5-0.2-66.5-0.1 0-29.1 28.9-64.4 64.2z"/></svg>