<svg version="1.2" xmlns="http://www.w3.org/2000/svg" viewBox="0 0 602 521" width="602" height="521"><style>.a{fill:#E63946}</style><path fill-rule="evenodd" class="a" d="m242.8 513.2c-12 5.4-35.6 0.8-48.8 0.8h-119c-9.3 0-54.3 5.4-51.1-9 7.5-32.7 51.3-10.1 72-18.8 6.2-2.6 10.7-11.9 14.5-17.2 10.9-15.3 26.6-32.4 33.3-50 3.5-9.2-3.4-14.3-10.7-18.3-18-10-35.6-21.1-51-34.8-45.3-40.3-87.5-95.6-80.7-159.9 6.9-64.6 42.7-169.7 106.7-197.7 47.8-20.9 87.8 4.2 133 16 14.1 3.6 45.5 14.8 48.3 31.7 1.8 10.9-28.2 10.6-35.3 12-29.4 5.7-66.3 19.4-69.8 54-3 30.1 32.4 47.7 50.7 67 47.3 49.8 85.3 106.2 122 164 11.8 18.6 23.2 37.4 34.9 56 2.3 3.6 12.6 14.9 6.7 18.7-5.3 3.4-18.6-5.5-23.5-8-22.3-11.1-44.7-21.8-67-33-64.1-32-138-67.4-183.4-124.7-20.2-25.5-36.9-67.7-16.6-98-47 35.3-13.7 104.1 20 134.6 68.9 62.3 157.9 93.1 237 139.2 17.8 10.5 30.6 39.5 42.3 56.2 3.3 4.8 11.8 13.7 10.9 19.9-2 12.4-38.6 5.2-46.2 2.5-33.9-12.1-54.4-42.8-76.6-69.4-4.7-5.6-19.3-30.5-26.7-30.5-4.7 0-10 13-12.1 16.5-11.3 18.2-22.7 36.3-34.6 54 7.8 0.8 37.3 18.7 20.8 26.2zm186.2-330.6c14.5 2.2 19.7 23.5 6.9 34.1-4.5 3.7-21.3-1.6-26.9-2.3-18.9-2.1-39.7 1-58 5.8-13.7 3.6-27.5 8.5-40 15.3-3.6 1.9-10.3 7.8-14.5 5.4-4.2-2.4-18.8-21.8-17-26.4 3.5-8.7 21.8-7.7 23.7-16.7 3.3-16-1.2-35.9 1-52.8 4.9-38.8 23.6-77.1 48.4-107 8.9-10.7 27.2-34.7 42.4-35.5 18.1-0.9 43.5 34.6 52.8 47.5 44.3 61.2 49.4 140.9 22 210-8.2 20.6-19.4 39.7-33.2 57-2.8 3.5-14.2 13.2-10 17.8 21.8 24.5 73.6 27.6 103.4 25.1 7.6-0.6 30.6-3.2 34.7-10.3 3.9-7-6.4-25.1-9.5-31.6-13.8-29.5-38.5-64.7-69.2-78 2.1-4.9 8.1-30.4 11.8-32 9.6-4.1 32.9 20.7 39.2 26.3 28.3 25.4 48.9 61.1 58.5 97.7 2.6 9.9 8.9 25.8 4.6 35.8-3.4 7.7-16 11.2-23.1 14-24.3 9.4-49.2 12.3-75 12.2-40.8-0.1-68-22.2-104-35.4-6.9-2.5-13.1 9.7-19.1 5.5-4.7-3.3-13.8-17.5-14.9-23-1.1-5.3 6-6.7 1.7-12.2-17.4-21.9-45.4-48.4-49.7-77.9-1-7.3 23.5-20.1 28.8-15.1 4.7 4.3 6.5 14.4 9.5 20.1 6.9 13.3 15.4 26.2 24.6 38 3.4 4.4 9 13.9 14.7 15.4 7.6 1.9 22.6-22.8 26.4-28.4 22.3-33.2 33.4-71 33-111-0.4-35.1-13.5-71-34.4-99-4.3-5.9-15.4-24.5-23.5-24.5-8.1 0-21.7 22.3-26.1 28.5-24 34.7-33.5 72.3-32 114 26.9-10.9 63.7-10.6 92-6.4zm-274-146.9c-16.4 4.9-10.2 31.8 7 26.7 15.4-4.6 9.2-31.4-7-26.7zm38 364.3c-0.7 11.1-12.2 20.9-18.9 29-15.4 18.6-32 37.7-45.1 58 16 0 47.2 6.1 61.5-0.8 6.1-3 10.6-14.6 14.1-20.2 11.6-18.8 27-38.1 34.4-59-15.9 0-30.4-4.8-46-7z"/></svg>
