<svg version="1.2" xmlns="http://www.w3.org/2000/svg" viewBox="0 0 951 949" width="951" height="949"><style>.a{fill:#FF8C42}</style><path fill-rule="evenodd" class="a" d="m474 0.2c8-0.1 21.7 0.3 30.5 0.8 8.8 0.6 22.3 1.7 30 2.5 7.7 0.9 18 2.3 23 3.1 5 0.8 15.1 2.9 22.5 4.5 7.4 1.6 21.3 5.2 30.8 7.9 9.4 2.8 23.4 7.3 30.9 10.1 7.6 2.8 19.4 7.6 26.3 10.6 6.9 3 19.9 9.3 29 14 9.1 4.7 21.2 11.5 27 15.1 5.8 3.6 14.5 9.2 19.5 12.5 5 3.3 14.4 10.1 21 15 6.6 5 16.5 12.8 22 17.5 5.5 4.7 16.3 14.9 24 22.7 7.7 7.7 18.5 19.2 24.1 25.5 5.5 6.3 13 15.3 16.5 20 3.6 4.7 9.4 12.8 13.1 18 3.6 5.2 9.7 14.4 13.5 20.5 3.8 6.1 10.8 18.2 15.5 27 4.8 8.8 11.3 21.9 14.6 29 3.2 7.1 7.6 17.3 9.7 22.5 2 5.2 6.1 16.5 9 25 2.9 8.5 7.1 22.7 9.3 31.5 2.3 8.8 5.2 22.1 6.6 29.5 1.4 7.4 3.2 18.7 4 25 0.8 6.3 2 17.1 2.7 24 0.7 6.9 1.2 25.1 1.2 40.5 0 15.4-0.5 33.6-1.2 40.5-0.6 6.9-1.8 18.1-2.7 25-0.9 6.9-3.1 20.1-5 29.5-1.9 9.4-5.5 24.4-8 33.5-2.6 9.1-6.8 22.6-9.4 30-2.7 7.4-7.1 18.7-9.8 25-2.7 6.3-8.3 18.5-12.5 27-4.1 8.5-10.5 20.7-14.2 27-3.6 6.3-11 18-16.3 26-5.3 7.9-14.6 20.8-20.6 28.5-6 7.7-15.5 19.2-21.1 25.5-5.7 6.3-15.6 16.7-22.1 23-6.6 6.4-15.3 14.5-19.4 18.1-4.1 3.6-11.8 9.9-17 14.1-5.2 4.1-14.2 10.8-20 14.9-5.8 4.1-15.2 10.4-21 14.1-5.8 3.6-15.9 9.6-22.5 13.4-6.6 3.7-17.2 9.2-23.5 12.1-6.3 3-17.1 7.8-24 10.8-6.9 2.9-20.6 8-30.5 11.3-9.9 3.3-25 7.9-33.5 10.1-8.5 2.2-21.6 5.1-29 6.5-7.4 1.4-20.5 3.4-29 4.5-8.5 1.1-23.1 2.6-32.5 3.2-10.6 0.7-26 0.9-41 0.5-13.2-0.3-30.3-1.3-38-2.1-7.7-0.8-19.9-2.4-27-3.6-7.1-1.1-19.1-3.4-26.5-5.1-7.4-1.6-19-4.5-25.7-6.4-6.8-1.9-17.1-5-23-7-6-2-17.5-6.2-25.8-9.5-8.2-3.2-22.2-9.4-31-13.7-8.8-4.3-21.4-10.9-28-14.6-6.6-3.8-16.3-9.5-21.5-12.9-5.2-3.3-14.9-10-21.5-14.8-6.6-4.8-16.1-11.9-21-15.9-4.9-4-12.6-10.4-17-14.3-4.4-3.9-13.2-12.2-19.5-18.6-6.3-6.4-16.7-17.7-23.1-25.1-6.4-7.4-15.8-19.1-20.9-26-5.1-6.9-11.6-15.9-14.3-20-2.8-4.1-8.8-13.8-13.4-21.5-4.6-7.7-11.7-20.5-15.7-28.5-4-8-9.5-19.5-12.1-25.5-2.6-6-6.7-16-9-22-2.4-6-6.4-17.7-8.9-26-2.6-8.2-6-20.2-7.6-26.5-1.5-6.3-4-17.4-5.4-24.5-1.4-7.1-3.3-17.7-4.1-23.5-0.9-5.8-2.2-18.6-3-28.5-0.8-9.9-1.5-26.6-1.5-37 0-10.4 0.7-27.3 1.5-37.5 0.8-10.2 2.7-25.9 4.1-35 1.4-9.1 3.6-21.7 5-28 1.4-6.3 3.8-16.7 5.5-23 1.7-6.3 4.9-17.1 7.1-24 2.2-6.9 6.9-19.9 10.5-29 3.6-9.1 10.7-24.8 15.8-35 5.1-10.2 11.8-23 15-28.5 3.1-5.5 10.8-17.7 17-27 6.2-9.3 16.4-23.3 22.5-31 6.2-7.7 13.3-16.2 15.8-19 2.5-2.7 10.8-11.5 18.6-19.4 7.8-7.9 18.6-18.2 24.1-23 5.5-4.8 14.9-12.6 21-17.3 6.1-4.7 16.6-12.3 23.5-16.9 6.9-4.7 16.3-10.8 21-13.5 4.7-2.8 12.3-7.2 17-9.8 4.7-2.6 15.3-7.9 23.5-11.8 8.3-3.8 19.9-9 26-11.5 6.1-2.5 18.2-7 27-10 8.8-2.9 22.8-7.1 31-9.3 8.3-2.2 20.6-5 27.5-6.4 6.9-1.4 18.8-3.4 26.5-4.5 7.7-1.1 20.5-2.5 28.5-3.1 8-0.5 16.8-1.2 19.5-1.3 2.8-0.2 11.5-0.4 19.5-0.5zm-70.5 40.3c-8.8 1.4-20.9 3.7-27 5.1-6.1 1.4-16.6 4.1-23.5 6-6.9 1.9-14.3 4.1-16.5 4.9-2.2 0.7-9.6 3.4-16.5 5.8-6.9 2.5-16.9 6.4-22.3 8.6-5.3 2.3-15.7 7.1-22.9 10.7-7.3 3.7-17.4 9-22.3 11.9-4.9 2.9-11.5 6.8-14.5 8.6-3 1.9-10.2 6.6-16 10.6-5.8 3.9-15.7 11.3-22 16.4-6.3 5.1-16 13.3-21.4 18.3-5.5 5-14 13.2-18.9 18.1-4.9 4.9-13.3 13.9-18.5 20-5.3 6.1-13.9 16.8-19.3 24-5.3 7.2-12.7 17.7-16.4 23.5-3.8 5.8-9 14.6-11.7 19.5-2.7 4.9-8.8 16.9-13.7 26.5-4.9 9.6-10.2 20.9-11.9 25-1.6 4.1-5.3 13.8-8 21.5-2.8 7.7-6.6 19.6-8.6 26.5-2 6.9-4.9 18.6-6.5 26-1.7 7.4-3.7 17.8-4.6 23-0.8 5.2-2.2 14.9-3.1 21.5-1 7.6-1.8 23.1-2.1 42-0.3 19.1-0.1 35.1 0.6 44 0.7 7.7 2.1 20.3 3.2 28 1.1 7.7 2.9 18.5 4 24 1.1 5.5 3.3 15.2 4.9 21.5 1.6 6.3 4.5 16.9 6.5 23.5 2 6.6 5.3 16.3 7.2 21.5 1.9 5.2 6 15.1 9 22 3.1 6.9 6.1 14.2 6.9 16.3 0.8 2 4.2 8.8 7.5 15 3.4 6.1 7.6 13.5 9.4 16.2 1.7 2.8 7.2 11.3 12 19 4.9 7.7 12.3 18.5 16.4 24 4.1 5.5 11.3 14.5 16 20 4.7 5.5 13.2 14.9 19 20.9 5.8 5.9 15.8 15.4 22.1 21 6.3 5.6 15.3 13.4 20 17.2 4.7 3.8 13.7 10.6 20 15 6.3 4.5 16.3 11.1 22.2 14.8 6 3.6 16.3 9.5 23 13 6.8 3.6 19.7 9.7 28.8 13.6 9.1 4 22.4 9.4 29.5 12 7.1 2.7 19.3 6.6 27 8.8 7.7 2.2 18.9 5.2 25 6.6 6.1 1.4 15.7 3.5 21.5 4.6 5.8 1 16.8 2.9 24.5 4.1 12.2 1.9 18.6 2.3 49.5 2.5 19.5 0.1 38.4-0.2 42-0.6 3.6-0.5 12.6-1.6 20-2.5 7.4-0.9 18.9-2.7 25.5-4 6.6-1.3 15.1-3.1 19-4 3.9-0.8 11.3-2.7 16.5-4.1 5.2-1.4 13.1-3.7 17.5-5.2 4.4-1.4 13.2-4.4 19.5-6.8 6.3-2.4 16.5-6.4 22.5-8.9 6-2.5 19.3-8.9 29.5-14.2 10.2-5.2 19.2-10 20-10.7 0.8-0.7 7.6-5 15-9.6 7.4-4.6 18.2-12 24-16.4 5.8-4.4 16.1-12.8 23-18.7 6.9-5.9 19.3-17.6 27.6-26.1 8.3-8.4 18.2-19.1 22.1-23.8 3.8-4.7 10.3-13 14.5-18.5 4.1-5.5 9.2-12.7 11.5-16 2.2-3.3 6.7-10.5 10-16 3.3-5.5 8.9-15.2 12.6-21.5 3.6-6.3 9.4-17.6 12.8-25 3.3-7.4 8.2-18.9 10.9-25.5 2.6-6.6 6.1-16.3 7.8-21.5 1.6-5.2 4.4-14.7 6.1-21 1.7-6.3 4.2-16.7 5.5-23 1.4-6.3 3.2-15.5 4-20.5 0.9-5 2.3-14.9 3.1-22 0.8-7.1 1.9-21.8 2.5-32.5 0.6-12.6 0.6-26.7 0-39.7-0.6-11.2-1.9-27.2-3-35.5-1-8.4-2.9-20.2-4-26.3-1.2-6.1-3.7-17.3-5.6-25-1.9-7.7-5.3-20.1-7.5-27.5-2.3-7.4-7-20.7-10.6-29.5-3.6-8.8-10-23-14.3-31.5-4.3-8.5-11.2-21.6-15.2-29-4.1-7.4-11.7-19.6-16.8-27-5.1-7.4-11.4-16.2-13.9-19.5-2.5-3.3-5-6.4-5.6-7-0.6-0.6-3.8-4.4-7-8.5-3.3-4.1-14.5-16.1-25-26.5-10.4-10.5-23.7-22.9-29.5-27.7-5.8-4.7-17.3-13.4-25.5-19.3-8.3-5.9-15.7-11-16.5-11.3-0.8-0.3-4.2-2.2-7.5-4.2-3.3-2-11.2-6.6-17.5-10.2-6.3-3.6-17.1-9.1-24-12.3-6.9-3.2-18-8-24.8-10.6-6.7-2.7-12.4-4.9-12.7-4.9-0.3 0-3.3-1.1-6.8-2.4-3.4-1.3-11.8-4-18.7-5.9-6.9-2-18.6-5-26-6.7-7.4-1.8-16.6-3.8-20.5-4.6-3.9-0.8-13.3-2.3-21-3.4-7.7-1.1-20.9-2.4-29.3-3-8.3-0.5-24.8-0.9-36.5-0.9-11.6 0.1-28 0.7-36.2 1.4-8.3 0.8-22.2 2.5-31 4zm71.2 26.5c3.3 0 4.6 0.7 9.3 5.4 5.4 5.3 5.5 5.5 3.9 7.8-0.9 1.3-5.6 6.6-10.4 11.8-4.9 5.2-13.5 14.2-29.5 30.5l2.3 2.6c1.2 1.4 7.1 7.3 23.8 23.4l7.4-8c4.1-4.4 7.4-8.4 7.5-9 0-0.6-3.7-4.7-16.5-17.4l6.5-6.6c3.6-3.6 7.3-6.5 8.2-6.5 1 0 8.3 6.2 16.3 13.8 10.3 9.7 14.5 14.4 14.5 16 0 1.2-2.1 4.5-4.8 7.6-2.6 2.9-11.5 12.6-19.7 21.6-8.3 8.9-15.8 16.7-16.8 17.1-0.9 0.5-2.7 0.6-4 0.3-1.2-0.4-10.8-9.2-21.2-19.5-18.3-18.2-19.2-18.9-24-19.7-2.8-0.5-6-1.5-7.2-2.3-1.3-0.8-2.9-3-3.7-4.9-1.2-3-1.2-3.9 0.1-6.5 0.9-1.7 8.6-10.2 17.2-19 8.6-8.8 20.4-21.1 26.3-27.3 9.9-10.4 10.9-11.2 14.5-11.2zm-205.3 68c1.2 0 3.2 1 4.5 2.2 2.2 2.1 2.4 2.8 1.8 8.8-0.4 3.6-1 13-1.3 21-0.5 10.9-0.3 17.2 1 25.5 0.9 6.1 2.3 13.7 3.1 17 0.9 3.3 3.1 9.4 4.8 13.5 1.8 4.1 5.4 10.7 7.9 14.5 2.6 3.8 7.5 10.1 11 13.9 3.4 3.8 10.8 10.3 16.3 14.4 5.5 4.1 12.8 8.9 16.3 10.8 3.4 1.9 6.2 3.7 6.2 4.2 0 0.4-2.9 4.3-6.5 8.7-3.5 4.4-8.7 12.1-11.4 17-2.8 4.9-6.5 12.4-8.2 16.5-1.8 4.1-4.2 11.1-5.5 15.5-1.4 4.4-2.4 8.8-2.4 9.8 0 0.9-0.4 1.9-1 2.2-0.6 0.3-2.7-0.4-4.8-1.4-2-1-6.5-4-10-6.5-3.4-2.5-9.9-8.1-14.3-12.3-4.5-4.3-10.9-11.2-14.4-15.3-3.4-4.1-8.3-10.6-10.9-14.5-2.6-3.9-6.8-11.1-9.1-16-2.4-4.9-5.6-13.1-7-18-1.4-4.9-3.3-14.4-4.1-21-1.2-8.5-1.5-16.4-1.1-27 0.3-8.2 1.3-18.4 2.2-22.5 0.9-4.1 2.7-10.9 4.1-15 1.4-4.1 4.2-11.1 6.4-15.5 2.1-4.4 6.6-11.8 10.1-16.4 3.4-4.6 8.1-9.7 10.3-11.3 2.2-1.5 4.9-2.8 6-2.8zm412.9 0c0.4 0 1.9 0.5 3.5 1.1 1.5 0.5 4.4 2.7 6.5 4.7 2.2 2 5.6 6.2 7.7 9.2 2 3 5.4 8.8 7.4 12.8 2 3.9 4.7 10.2 6.1 14 1.4 3.7 3.4 11 4.5 16.2 1 5.2 2.2 14.9 2.6 21.5 0.4 7.2 0.1 16.8-0.6 24-0.6 6.6-1.8 14.9-2.5 18.5-0.8 3.6-2.6 10.1-4 14.5-1.5 4.4-4.7 12.1-7.3 17-2.6 4.9-6.9 12-9.7 15.7-2.7 3.6-8.4 10.6-12.5 15.4-4.1 4.8-11.3 11.9-16 15.8-4.7 3.9-11.3 9.1-14.7 11.4-3.5 2.3-6.5 3.9-6.7 3.5-0.2-0.5-2-6-4.1-12.3-2-6.3-6.2-16.4-9.2-22.5-3-6.1-7.3-13.7-9.5-17-2.2-3.3-6-8.4-8.4-11.2-2.4-2.9-4.2-5.9-4.1-6.5 0.2-0.7 3-2.8 6.3-4.7 3.2-1.8 9.5-5.9 13.9-9.1 4.4-3.2 12.1-10 17-15.1 5-5.2 11.3-13 14-17.4 2.8-4.5 6.4-12.2 8.2-17.8 1.8-5.3 4-14.1 4.9-19.4 1.2-7.6 1.5-15.5 1.2-34.5-0.2-13.5-0.1-24.8 0.2-25.1 0.3-0.2 1.4-0.9 2.5-1.5 1.1-0.6 2.3-1.2 2.8-1.2zm-206.5 81c1.2 0 3.4 0.5 5 1.1 1.5 0.5 4.2 2.5 6 4.2 1.9 1.8 4.6 5.4 8.7 13.2l0.5 147.5h62.3c35.2 0 65.1 0.5 69 1 3.7 0.6 8.5 1.9 10.7 3 3.3 1.6 4.2 2.8 5.1 6.3 0.7 2.6 1 9.2 0.7 17.2-0.3 7.1-1 14-1.6 15.3-0.9 1.7-1.8 2.1-3.9 1.7-1.6-0.2-31.6-0.7-66.8-1-50.1-0.4-64.8-0.2-71 2l-1 78-3 5.5c-1.6 3-6.6 9.2-11 13.7-4.8 5-8.8 8.3-10 8.3-1.2 0-5.5-3.6-10.5-8.8-5.7-5.8-9.6-10.9-11.8-15.2-3.1-6.2-3.2-7.1-3.2-17.5 0-6.1-0.3-23.5-1.5-66.8l-62.5 0.9c-34.4 0.5-65.4 0.9-75.5 0.9l-1.2-3.5c-0.7-2-1.2-9.2-1.2-16.8-0.1-9.8 0.3-14 1.4-16.2 0.8-1.6 2.9-3.7 4.5-4.5 1.6-0.8 6-1.9 9.8-2.5 3.8-0.5 33.7-1 131.2-1l0.5-146.5 2.5-5c1.4-2.8 4.1-6.5 6-8.4 1.9-1.9 4.9-4 6.5-4.7 1.7-0.7 4-1.3 5.3-1.4zm-38.8 30l-0.5 116.4-54.7 0.1c-35.9 0-54.8-0.3-54.8-1 0-0.6 2.3-6.2 5-12.5 2.7-6.3 7.7-16.7 11.1-23 3.4-6.3 8.6-15.1 11.5-19.5 2.9-4.4 8.8-12.3 13.1-17.5 4.4-5.2 11-12.2 14.8-15.4 3.9-3.2 10.4-8.2 14.5-10.9 4.1-2.8 10.9-6.6 15-8.5 4.1-1.9 10.4-4.5 14-5.7 3.6-1.3 7.5-2.4 11-2.5zm80 0c1.1 0 6.4 1.6 11.8 3.6 5.3 2 13.3 5.6 17.7 8.1 4.4 2.5 11.6 7.4 16 10.8 4.4 3.4 11.1 9.3 14.9 13.1 3.8 3.8 9.4 10 12.6 13.9 3.2 3.9 8.4 11.1 11.8 16 3.3 4.9 8.5 13.9 11.6 20 3.1 6.1 7 15.2 8.6 20.2 1.7 5.1 3 10.3 3 11.5 0 2.1-0.3 2.2-3.7 1.6-2.1-0.4-18.2-1.2-35.8-1.8-17.6-0.6-40.7-1.2-70.5-1.5l-0.1-56.5c0-31.1 0-57.1 0-57.8 0.1-0.6 1-1.2 2.1-1.2zm255 69.1c0.3-0.1 1.9 0.3 3.5 0.9 1.9 0.6 5.9 4.3 10.5 9.7 4.1 4.9 11.7 13.5 16.9 19.3 5.2 5.8 13.5 14.7 18.5 19.8 5 5 9.4 9.2 9.9 9.2 0.4 0 0.7-11.7 0.7-52l2.9-3c2.2-2.3 3.9-3 6.8-3 2.3-0.1 4.9 0.7 6.6 2 1.5 1.1 3.1 3.6 3.7 5.7 0.6 2.4 1 29.1 1 69.3 0 40.2-0.4 66.9-1 69.3-0.7 2.5-2.1 4.4-4.2 5.7-2.4 1.5-4.3 1.9-6.8 1.6-2.2-0.3-4.5-1.7-9-6.6v-28c0-22.1-0.3-28.6-1.4-30.8-0.8-1.5-4.5-5.4-8.3-8.7-3.7-3.3-14-13.1-22.8-21.7-8.8-8.7-16.3-15.7-16.7-15.8-0.5 0-0.9 23.3-1 51.8-0.3 47-0.5 52-2 55-1 1.7-2.7 3.6-3.8 4.2-1.1 0.6-3.1 1-4.5 1-1.4 0-3.7-0.6-5.1-1.2-1.4-0.7-3.4-3.1-4.4-5.3-1.9-3.8-2-7-2-142l3.2-2.4c1.8-1.4 4.4-2.8 5.8-3.2 1.4-0.4 2.7-0.8 3-0.8zm-635.8 8c1-0.1 10.2 5.6 20.5 12.5 10.4 7 23.1 15.7 28.3 19.4 5.2 3.7 10 7.3 10.6 8.1 0.6 0.8 1.4 2.5 1.7 3.9 0.4 1.5-0.1 3.9-1.1 5.9-0.9 1.8-2.2 3.7-2.7 4.1-0.6 0.4-2 1-3.3 1.4-1.7 0.5-5.5-1.6-17-9.2-8.1-5.4-16.9-11.2-19.5-12.8-4.2-2.5-5-2.7-5.8-1.4-0.5 0.8-0.9 7.7-0.9 29l2.9 2.3c1.6 1.2 12 8.1 23.1 15.2 11.2 7.1 20.7 13.9 21.2 15 0.6 1.3 0.6 3.5-0.1 6.3-0.6 2.4-2.1 4.8-3.4 5.7-1.2 0.8-3.9 1.5-6 1.5-2 0-4.9-0.5-6.5-1.1-1.5-0.6-8.6-4.9-15.7-9.6-7.2-4.7-13.6-8.7-14.3-8.9-0.9-0.3-1.2 6.4-1.2 62.6l-2.9 3c-2 2.1-3.9 3-6 3-1.7 0-4.1-0.5-5.4-1-1.2-0.6-3.1-2.5-4.2-4.3-2-3.1-2-4.9-2-73.8 0-67.1 0.1-70.8 1.8-72.9 1-1.3 2.8-2.6 4-3.1 1.2-0.4 3-0.8 3.9-0.8zm222.3 121.4v12c0 6.6-0.3 21.7-0.7 33.5-0.5 11.8-1.2 25.5-1.8 30.5-0.6 5-1.9 13.7-3.1 19.5-1.1 5.8-4 19.4-6.5 30.3-2.4 10.8-4.9 20.9-5.6 22.5-0.7 1.5-2 3.9-3 5.5-1.1 1.6-2.7 2.7-4.1 2.7-1.3 0-10.4-6.1-23.2-15.6-11.6-8.6-22-16.6-23.3-17.7-1.2-1.2-2.2-3.2-2.2-4.5 0-1.3 1.5-3.5 3.9-5.5 2.1-1.7 6.2-6.3 9.1-10.2 2.9-3.9 6.9-10.6 9-15 2.1-4.4 4.6-11.6 5.4-16 0.9-4.4 2.1-13.6 2.6-20.5 0.5-6.9 1-20.9 1-31.3 0-10.3 0.3-18.8 0.7-18.8 0.5-0.1 6.2-0.5 12.8-0.9 6.6-0.4 15.8-0.6 29-0.5zm249.5-0.1c8 0.4 17.1 0.9 26 1.6v10.3c0 5.6 0.5 17.4 1 26.2 0.6 8.8 1.8 20.7 2.6 26.5 0.9 5.8 2.7 14.1 4.1 18.5 1.4 4.4 4.2 10.7 6.2 14 1.9 3.3 6.8 9.1 10.8 13 4.8 4.6 7.3 7.8 7.3 9.3 0 1.7-4.9 5.9-23.5 19.7-12.9 9.6-24.2 17.5-25 17.5-0.8 0-2.2-0.3-3.1-0.7-0.9-0.5-2.4-2.2-3.2-3.8-0.8-1.6-2.9-9.5-4.8-17.5-1.8-8-4.8-22.6-6.7-32.5-2-9.9-4-22.5-4.6-28-0.6-5.5-1.5-19.2-2.1-30.5-0.6-11.3-1.1-25.5-1.2-31.6-0.1-6.1 0.3-11.4 0.8-11.8 0.5-0.5 7.4-0.5 15.4-0.2zm-229.2 60.6c0.4 0 20.3 15.8 44.3 35.2 24 19.4 46.9 38.3 51 41.9 4.1 3.6 13.7 11.9 21.4 18.3 7.7 6.5 18 15.7 22.8 20.4 4.8 4.8 8.8 8.9 8.7 9.2 0 0.3-3.6 3.4-8.1 7-4.4 3.6-9.2 7.7-10.7 9.3-1.5 1.5-3.4 2.7-4.2 2.7-0.8 0-7.4-5.5-14.5-12.3-7.2-6.7-21.8-19.8-32.5-29.1-10.7-9.2-26.7-22.3-35.5-28.9-8.8-6.7-21-16-27-20.8-6.1-4.7-12.9-10.7-15.3-13.3-2.3-2.5-4.5-5.8-4.9-7.3-0.3-1.6 0.2-8 1.1-14.3 0.9-6.3 1.9-13 2.2-14.7 0.3-1.8 0.8-3.3 1.2-3.3zm193.6-0.2l0.8 4.4c0.5 2.3 1.8 9 2.9 14.8 1.2 5.8 1.9 11.6 1.6 13-0.3 1.4-2.5 4.5-4.9 7-2.4 2.5-9 8.3-14.8 13-5.8 4.6-17.5 14-26 20.9-8.5 6.8-16.1 12.5-16.8 12.7-0.6 0.2-5.6-3-11-7.2-5.3-4.2-10.3-8.4-11-9.3-0.7-0.9-1.3-2.1-1.3-2.6 0-0.6 4.4-4.6 9.8-9 5.3-4.4 18.3-15 28.9-23.5 10.5-8.5 24.2-19.7 30.5-24.8zm-407.7 43.2c1.4-0.1 4.2 2.1 8.1 6.2 3.2 3.4 11.9 12.8 19.3 20.7 7.4 8 15.2 16.5 17.4 18.9 2.1 2.4 4.5 5.3 5.1 6.5 0.7 1.2 1.3 3.5 1.3 5.1 0 1.7-0.9 4.8-2.1 7-1.1 2.2-6 8.1-10.8 13-4.7 5-12.1 12.9-16.3 17.5-4.3 4.7-7.7 8.9-7.7 9.3-0.1 0.4 0.8 1.5 1.8 2.5 1 0.9 7 7.4 13.3 14.2 6.2 6.9 12.4 13.9 13.6 15.5 1.3 1.7 2.3 4.4 2.2 6 0 1.7-0.9 4.4-2 6-1.1 1.7-3 3.6-4.2 4.2-1.3 0.7-3.5 1.3-5 1.3-2 0-4.5-1.5-8.5-5.1-3.2-2.8-10.5-10.1-26.8-27.2l-7.1 7.4c-3.9 4.1-9.2 9.9-11.8 12.9-2.6 3.1-6.4 7-8.4 8.8-2.7 2.4-4.6 3.2-7.4 3.2-2.6 0-4.7-0.8-6.8-2.5-1.6-1.3-3.4-3.9-3.8-5.7-0.5-1.8-0.5-4.6 0-6.3 0.5-1.6 2.9-5.2 5.2-8 2.4-2.7 8.7-9.7 14-15.5 5.3-5.7 9.6-10.8 9.6-11.2 0-0.4-3.1-4.3-6.8-8.5-3.8-4.3-11.1-12.3-16.3-17.8-5.3-5.5-10.3-11.4-11.2-13.2-0.9-1.8-1.7-5-1.6-7 0-2.1 0.4-4.5 0.7-5.4 0.4-0.9 5.7-7.2 11.7-14 6-6.8 13-14.6 15.5-17.3 2.5-2.8 7.4-8.1 11-11.8 3.6-3.8 7.9-7.5 9.5-8.3 1.7-0.8 4-1.4 5.3-1.4zm-28.8 57.9c6.8 8.2 12.8 14.8 17.9 20l9.1 9.5c6.6-7.2 12.3-13.4 17-18.5 4.7-5 8.6-9.6 8.8-10.1 0.1-0.5-0.6-1.9-1.5-3.2-1-1.3-5.6-6.5-10.3-11.7-4.7-5.1-9.6-10.4-11-11.7-1.4-1.3-2.9-2.3-3.5-2.3-0.5 0-6.7 6.3-13.7 14zm627.5-49.9c2.8-0.1 5.6 0.9 10 3.5 3.3 2 11.6 7.5 18.5 12.4 6.8 4.8 16.1 11.1 20.5 14 4.4 2.9 9.4 6.7 11.2 8.4 2.9 2.8 3.3 3.8 3.3 8.4 0 4.3-0.4 5.5-2.3 6.7-1.2 0.9-3.7 1.6-5.5 1.5-2.6 0-4.5-1.2-9.5-5.8-3.4-3.2-11.1-9.1-17.1-13.2-6-4.1-12.7-8.7-15-10.2-2.3-1.5-4.7-2.8-5.4-2.8-0.9 0-1.2 3.3-1.2 12.8-0.1 7 0.2 14.1 0.5 15.7 0.5 2.8 2 3.8 15.8 10.7 8.3 4.2 16.5 8.7 18.2 10.1 1.6 1.3 3.3 3.6 3.7 5.1 0.4 1.4 0.3 4.4-0.2 6.6-0.6 2.3-2 4.6-3.3 5.5-1.7 1-3.2 1.1-6.2 0.4-2.2-0.6-9.2-3.5-15.5-6.5-6.4-3-11.6-5.4-11.8-5.4-0.1 0-0.2 13.1-0.2 29 0 25.4-0.3 29.6-1.8 33.2-0.9 2.3-2.5 4.5-3.5 5-0.9 0.5-3.2 0.8-5 0.8-1.8 0-4.6-0.8-6.2-1.8-2.2-1.3-3.4-3.1-4.3-6.5-0.9-3.5-1.2-20.2-1.2-66.9 0-56.9 0.2-62.5 1.7-64.7 1-1.3 3.1-3.2 4.8-4.2 1.6-1 4.8-1.8 7-1.8zm-321.2 61.4c1.2 0.8 6.2 5.8 20.2 20.7l-27.1 26.7c-14.8 14.6-30.1 30.5-34 35.1-3.9 4.7-8.1 10.1-9.4 12-1.8 2.7-2.2 4.3-1.6 6.5 0.4 1.7 3.1 6.6 6 11 3 4.4 7.6 10.7 15.4 20l-5.8 6.5c-3.3 3.6-8.4 9-17.2 17.5l-7.5-8c-4.1-4.4-10.2-11.6-13.6-16-3.3-4.4-7.6-11.3-9.6-15.5-3-6.3-3.6-8.7-3.9-16-0.4-8.2-0.3-8.7 3.6-16.5 3.1-6.2 7-11.2 17.4-22.5 7.3-8.1 17.8-19.7 23.3-25.8 5.5-6.1 13.3-13.9 17.4-17.4 4.2-3.4 11.3-9.3 15.8-13 7.9-6.4 8.5-6.7 10.6-5.3zm-88.3 4.1c2.4 0.2 7.4 0.6 11 1 3.5 0.3 10.3 1.5 15 2.5 4.6 1.1 10.6 2.7 13.2 3.5 2.9 0.9 4.8 2 4.8 2.9 0 0.9-6.4 7.3-28.2 27l-10.2-0.3c-6.8-0.2-12.4 0.2-16.9 1.3-3.7 0.8-8.6 2.6-11 4-2.3 1.3-5.7 3.9-7.4 5.7-1.8 1.9-4.3 5.6-5.7 8.3-1.4 2.8-3.1 8.2-3.8 12-1 5.9-1 8.3 0.4 15 0.8 4.4 3 11.9 4.9 16.5 1.8 4.7 6.5 13.3 10.4 19 3.8 5.8 9.6 14.1 12.9 18.5 3.3 4.4 13 15.1 21.7 23.8 8.7 8.7 16.3 15.7 16.9 15.7 0.5 0 6-4.8 12.2-10.7 6.2-5.9 14.9-14.1 19.3-18.2 4.4-4.1 12.6-12 28.6-27.6l7 7.5c3.8 4.2 8.6 9.5 14.4 16.3l-12.2 11.6c-6.7 6.4-24 22.9-38.3 36.6-14.3 13.8-27.2 25.5-28.5 26-2.1 0.9-3.4 0.4-9.2-3.7-3.8-2.6-10.2-7.7-14.3-11.3-4.2-3.7-12.4-11.5-18.4-17.3-6-5.9-14.6-14.7-19-19.7-4.5-5-10.7-12.4-13.8-16.5-3.1-4.1-8.1-11.5-11.3-16.5-3.1-4.9-7.6-13-10.1-18-2.4-4.9-5.5-13-7-18-2.3-7.8-2.7-10.8-2.7-23.5-0.1-10.6 0.3-16.2 1.6-21 0.9-3.5 3.4-10.1 5.6-14.5 2.3-4.6 6.4-10.6 9.7-14.4 3.2-3.5 8.1-8 10.9-10.1 2.7-2 6.9-4.6 9.2-5.8 2.4-1.2 7.8-3.1 12-4.3 4.3-1.2 10.9-2.5 14.8-2.9 3.8-0.4 9-0.6 11.5-0.4zm244.2 0.5c7.3 0 14.7 0.6 19.5 1.5 4.3 0.9 10 2.5 12.8 3.6 2.7 1.1 7.9 3.9 11.5 6.3 3.5 2.4 9.1 7.2 12.3 10.7 3.2 3.5 7.6 9.3 9.7 12.8 2.1 3.6 4.9 9.9 6.1 14 2 6.5 2.4 9.6 2.3 22.5 0 11.1-0.4 16.8-1.7 21.5-1 3.6-4.7 12.4-8.2 19.5-3.5 7.2-9.1 17.1-12.3 22-3.2 5-9.5 13.6-13.8 19.2-4.4 5.6-13.4 16.1-20 23.5-6.7 7.3-17.3 17.9-23.5 23.5-6.3 5.6-13.9 11.7-16.9 13.7-3.1 2-6.7 3.7-8 3.7-1.9-0.1-5.2-2.8-13.3-11.3-5.9-6.2-10.7-11.7-10.8-12.3 0-0.5 4.9-6.1 21.8-24l5.3 5 4.6-4.5c2.5-2.4 7.2-7.2 10.3-10.5 3.2-3.3 8.8-9.3 12.5-13.5 3.7-4.1 10-11.7 14-17 4-5.2 9.4-13.1 11.9-17.5 2.5-4.4 6.1-11.8 7.9-16.5 3-7.9 3.2-9.3 3.2-21.5 0.1-12.5-0.1-13.2-2.9-18.9-1.7-3.3-4.6-7.5-6.5-9.3-2-1.8-5.8-4.4-8.5-5.7-2.8-1.4-8.4-3-12.5-3.7-4.2-0.6-10.9-0.8-15-0.5-4.2 0.3-10.2 1.4-13.5 2.4-3.3 1.1-9.6 3.8-14 6.1-4.4 2.2-10.7 6.4-14 9.1-3.3 2.7-13.3 12.6-22.3 22-8.9 9.4-16.8 17-17.5 17-0.7 0-6.1-4.8-12-10.7-5.9-5.9-10.7-11.1-10.7-11.5 0-0.4 9.1-10.2 20.2-21.8 11.8-12.3 23.5-23.5 28-26.8 4.3-3.1 11.3-7.6 15.5-9.9 4.3-2.3 11.1-5.4 15.3-6.8 4.1-1.3 10.6-3.1 14.5-3.9 3.8-0.7 12.3-1.4 18.7-1.5zm-22.5 56c0.7 0 3.4 2.3 5.9 5.2 2.6 2.9 6.4 7.9 8.6 11.2 2.1 3.3 4.3 7.8 4.9 10 0.6 2.2 0.9 8.3 0.7 13.5-0.4 8.5-0.8 10.4-4 17-2 4.2-7.6 12.7-12.5 19-4.9 6.4-13.7 16.7-19.7 23-6 6.4-26.7 27.4-46 46.8-19.3 19.4-35.9 35.5-36.9 35.8-1 0.2-3.4-0.8-5.5-2.5-2-1.6-11.8-11.1-39.7-39.1l11.3-11.5c6.2-6.3 11.6-11.5 12-11.5 0.4 0 5.3 4.3 21.2 19l15.7-14.8c8.7-8.2 23.6-23 33.3-32.8 9.6-9.8 20.7-22.1 24.6-27.4 3.9-5.2 8.1-11.5 9.4-14 1.4-2.7 2.3-6.2 2.3-9 0-2.4-0.7-5.8-1.6-7.5-1-1.6-3.2-4.9-8.2-11.6l4.9-4.2c2.7-2.3 7.9-6.5 11.5-9.4 3.6-2.8 7.1-5.2 7.8-5.2zm-128.6 0.9c0.5 0 16.7 15.8 71.4 70.1l-11.5 11c-6.4 6.1-12 11-12.5 11-0.6 0-6.6-5.8-13.5-12.8-6.8-7-22.3-22.7-34.3-34.8-19.2-19.2-21.8-22.2-21-24 0.6-1.1 5.4-6.1 10.8-11.2 5.3-5.1 10.1-9.3 10.6-9.3z"/></svg>