<svg version="1.2" xmlns="http://www.w3.org/2000/svg" viewBox="0 0 691 599" width="691" height="599"><style>.a{fill:#4db8d0}</style><path class="a" d="m465.5 1.5c-3.9 0.7-10.1 2.2-14 3.3-3.9 1.2-10.4 3.8-14.5 5.8-4.1 2-10.6 5.6-14.5 8.1-3.9 2.5-10.5 8-14.9 12.2-4.3 4.2-9.7 10.3-12.1 13.6-2.3 3.3-6.5 10.3-9.3 15.5-2.8 5.2-6.2 12.6-7.5 16.5-1.3 3.9-2.9 10.1-3.5 14-0.6 3.9-1.3 9.1-1.6 11.8l-0.6 4.7h37c0-3.5 0.7-7.4 1.6-11 0.9-3.6 3.2-9.6 5.1-13.5 1.9-3.9 6-10.3 9.2-14.4 3.1-4.1 8.7-9.9 12.6-12.9 3.9-2.9 10.1-6.9 14-8.8 3.9-1.8 10.6-4.1 15-5 5.8-1.2 10.9-1.5 18.5-1.1 7.7 0.3 12.6 1.2 18.5 3.2 4.4 1.4 9.6 3.6 11.5 4.8 1.9 1.1 5.9 3.9 8.9 6.1 3 2.3 7.9 7 10.8 10.6 3 3.6 7.1 9.9 9.3 14 2.1 4.1 5.1 11.6 6.6 16.5 2.4 7.9 2.7 10.7 2.8 23 0 9.4-0.5 16.6-1.6 22-1 4.4-3.1 11.1-4.8 15-1.8 3.9-5.5 10.6-8.4 15-2.9 4.4-8.1 11-11.7 14.6-3.5 3.6-10 9.2-14.4 12.5-4.4 3.3-12 8-17 10.5-5 2.6-12.4 5.8-16.5 7.2-4.1 1.4-10.9 3.3-15 4.3-7 1.7-19.3 1.8-184.5 2.2l-177 0.3c-17.8 16.7-26.8 24.8-31.5 28.8-4.7 4.1-8.9 7.8-9.5 8.2-0.6 0.5 49.4 0.7 113.5 0.4 63-0.3 150.1-0.7 193.5-1 45.6-0.3 83.4-0.9 89.5-1.5 5.8-0.6 14.8-2 20-3.2 5.2-1.1 13.3-3.4 18-5 4.7-1.7 12.5-4.9 17.5-7.3 5-2.4 12.6-6.7 17-9.5 4.4-2.9 11.8-8.5 16.4-12.4 4.7-3.9 11.6-10.7 15.5-15.2 3.9-4.4 9.8-12.1 13-17 3.3-4.9 7.2-11.8 8.8-15.4 1.6-3.6 4-10.3 5.4-15 1.3-4.7 3.1-13 3.9-18.5 0.8-5.5 1.5-14.9 1.5-21 0-6.1-0.7-15.3-1.6-20.5-0.9-5.2-2.9-13.6-4.5-18.5-1.7-4.9-4.8-12.6-7.1-17-2.2-4.4-5.6-10.5-7.6-13.5-2-3-7.1-9.1-11.3-13.5-4.2-4.4-11.2-10.5-15.5-13.5-4.4-3-11.9-7.3-16.9-9.6-5-2.4-13-5.4-18-6.8-5-1.4-12.1-3-16-3.6-3.9-0.5-11-0.9-16-0.9-5 0-12.1 0.7-16 1.4zm-413.7 303.5l-11.7 0.5c-29.7 26.3-39.1 34.5-40 35.2-1.3 1 24.3 1.2 118.4 1.3h120c3.9 3.6 8 7 11.7 9.8l6.8 5.2c11.2-9.7 15.8-13.4 17.3-14.5l2.8-2c-17.5-17.8-26-26-30.1-29.8l-7.5-6.7c-136.4 0.3-181.3 0.6-187.7 1zm235.2 2.3c1.9 1.8 10.7 10.2 19.5 18.5l16 15.2 78 1.2 17.4 17.3c5.9-5.1 11.1-9.3 15.3-12.8l7.7-6.2c-6.4-7-14.3-15.2-21.6-22.8l-13.3-13.7h-122.5zm178.6 16.4l20.2 19.8c9.1-1.1 16.7-1.7 22.7-2.1 6-0.4 16.7-0.2 23.7 0.5 7.1 0.6 16.1 1.7 20 2.6 4 0.8 10.2 2.4 13.8 3.5 3.6 1.2 10.1 3.8 14.5 5.9 4.4 2 11.6 6.1 16 9.1 4.4 2.9 11.6 9 16.1 13.4 4.4 4.4 10.4 11.2 13.2 15.1 2.9 3.8 7.9 12.4 11.2 19 3.8 7.5 7 15.7 8.6 22 1.9 7.5 2.7 13.5 3.1 24 0.3 7.7 0.1 18.7-0.5 24.5-0.6 5.7-0.9 10.7-0.7 11 0.3 0.2 3.7-2.7 7.7-6.6 4-3.9 13.4-12.7 20.9-19.5 7.6-6.8 14-13 14.3-13.7 0.3-0.7-0.1-5.8-1-11.5-0.8-5.6-2.7-14.7-4.1-20.2-1.3-5.5-3.5-12.7-4.8-16-1.2-3.3-4.1-9.9-6.5-14.5-2.3-4.7-6.6-12.1-9.4-16.5-2.9-4.4-8.2-11.4-11.7-15.5-3.6-4.2-10.1-10.5-14.5-14.1-4.3-3.6-11.5-9-15.9-12-4.4-2.9-12.5-7.5-18-10.3-5.5-2.7-15.9-6.8-23-9.2-7.1-2.4-16.8-5.1-21.5-6-7.1-1.4-17.1-1.8-61.6-2.1l-53-0.5zm-343.6 64.1l-19.5 0.4c-16.1 15-25.5 23.5-31.1 28.6l-10.4 9.3 445.5-0.5c10.9 3.6 16.7 6.1 20 8 3.3 1.8 8.3 5.2 11 7.5 2.8 2.3 6.9 6.5 9.3 9.3 2.3 2.8 5.5 7.6 7.1 10.7 1.7 3 4 9.1 5.3 13.5 1.8 6.4 2.3 10.4 2.3 20.5 0 8.7-0.6 14.4-1.8 19-0.9 3.5-3.1 9.4-4.9 13-2.1 4.3-5.5 8.8-10.3 13.5-3.9 3.8-9.5 8.4-12.5 10.2-3 1.8-8.9 4.5-13 6-6.5 2.4-8.9 2.7-19 2.7-9.4 0-12.5-0.4-17-2.2-3-1.2-7.5-3.9-9.9-6-2.4-2-5.3-5.5-6.3-7.7-1.1-2.2-2.3-6.3-2.5-9-0.3-3.1 0.1-7.2 1-10.5 0.9-3.1 3.1-7.8 4.9-10.5 1.8-2.7 5.2-6.4 7.6-8.2l4.2-3.3c-20.2-18.8-21.7-19.9-23.5-18.9-1.1 0.7-7.2 6.4-13.6 12.8-6.4 6.3-12.6 13.5-13.8 15.8-1.1 2.3-2.7 7.1-3.6 10.5-0.8 3.4-1.5 8.5-1.4 11.3 0 2.7 0.6 8.1 1.4 12 0.8 3.8 3.1 10.3 5.2 14.5 2.7 5.6 5.6 9.4 11.7 15.5 5.8 5.7 10.4 9.2 16.1 12.1 4.4 2.3 11.4 5.3 15.5 6.7 4.1 1.3 11.9 2.9 17.3 3.5 6.8 0.8 12.5 0.8 19 0.1 5.1-0.5 12.5-1.9 16.5-3 4-1.1 9.6-3 12.5-4.3 2.9-1.2 8.4-4.3 12.2-6.8 3.9-2.5 10.2-7.2 14-10.5 3.9-3.3 9.6-9.1 12.7-12.9 3.1-3.8 7.5-10.1 9.8-13.9 2.2-3.9 5.4-11.1 6.9-16 1.6-5 3.7-13.8 4.7-19.5 1.3-7.9 1.6-13.7 1.1-23-0.3-8.6-1.3-15.6-3-22-1.4-5.3-3.9-12.7-5.7-16.5-1.7-3.9-5.2-10.2-7.7-14-2.5-3.9-7.7-10.2-11.7-14.1-3.9-3.9-10.5-9.4-14.6-12.3-4.1-2.9-10.9-7-15-9.1-4.1-2.1-10.9-4.9-15-6.3-4.1-1.4-10.9-3.4-15-4.4-7.1-1.7-17.8-1.8-190.5-1.8-100.6-0.1-191.8 0.1-202.5 0.2z"/></svg>